# xmcd CD database file
#
# Track frame offsets:
#	150
#	2187
#	15957
#	31963
#	48409
#	71821
#	99100
#	110216
#	139047
#	150618
#	178360
#	191844
#	203357
#	226389
#	234471
#	243940
#	261317
#	279090
#	289932
#	303895
#	314597
#	326668
#	340312
#	354552
#
# Disc length: 4777 seconds
#
# Revision: 0
# Processed by: cddbd v1.5.1PL2 Copyright (c) Steve Scherf et al.
# Submitted via: CDex 1.50
#
DISCID=5912a718
DTITLE=La Cave Saravah - Vol 1
DYEAR=2006
DGENRE=Jazz
TTITLE0=Intro
TTITLE1=La Nuit De Mon Amour
TTITLE2=La Maison Du Café
TTITLE3=Ode To Maffen
TTITLE4=Ntce Ngani
TTITLE5=Le Moral Necessaire
TTITLE6=For All We Kinow
TTITLE7=Colompin' Bombin
TTITLE8=Le Tango
TTITLE9=Ooh La La
TTITLE10=Berimbau
TTITLE11=Pause Café
TTITLE12=Le Temps
TTITLE13=80a.B
TTITLE14=Musique Pour Publicité
TTITLE15=Killy
TTITLE16=E.D.F Power
TTITLE17=Piège
TTITLE18=Un Homme Qui Me Plaît
TTITLE19=Sur Un Banc, Sous La Pluie
TTITLE20=Fille Du Soleil
TTITLE21=Soliste
TTITLE22=Cyclothimie
TTITLE23=Outro
EXTD=YEAR: 2006
EXTT0=
EXTT1=
EXTT2=
EXTT3=
EXTT4=
EXTT5=
EXTT6=
EXTT7=
EXTT8=
EXTT9=
EXTT10=
EXTT11=
EXTT12=
EXTT13=
EXTT14=
EXTT15=
EXTT16=
EXTT17=
EXTT18=
EXTT19=
EXTT20=
EXTT21=
EXTT22=
EXTT23=
PLAYORDER=
